<svg xmlns="http://www.w3.org/2000/svg" xmlns:xlink="http://www.w3.org/1999/xlink" width="20" height="20" viewBox="0 0 20 20">
  <defs>
<filter id="color-overlay-1" filterUnits="userSpaceOnUse">
      <feFlood flood-color="#ffffff" flood-opacity="1"/>
      <feComposite operator="in" in2="SourceGraphic"/>
      <feBlend mode="normal" in2="SourceGraphic" result="colorOverlay"/>
    </filter>
  </defs>
  <path fill="#ffffff" d="M15.000,20.000 C15.000,20.000 5.000,20.000 5.000,20.000 C2.239,20.000 0.000,17.762 0.000,15.001 C0.000,15.001 0.000,5.001 0.000,5.001 C0.000,2.240 2.239,0.001 5.000,0.001 C5.000,0.001 15.000,0.001 15.000,0.001 C17.762,0.001 20.000,2.240 20.000,5.001 C20.000,5.001 20.000,15.001 20.000,15.001 C20.000,17.762 17.762,20.000 15.000,20.000 ZM16.462,7.433 C16.462,7.433 15.401,6.362 15.401,6.362 C15.256,6.215 15.017,6.215 14.872,6.362 C14.872,6.362 9.288,11.929 9.288,11.929 C9.142,12.078 8.904,12.078 8.758,11.929 C8.758,11.929 6.312,9.433 6.312,9.433 C6.239,9.360 6.144,9.324 6.049,9.323 C5.953,9.322 5.855,9.358 5.782,9.433 C5.782,9.433 4.701,10.408 4.701,10.408 C4.628,10.481 4.590,10.574 4.590,10.671 C4.590,10.767 4.628,10.869 4.701,10.943 C4.701,10.943 7.167,13.535 7.167,13.535 C7.313,13.683 7.552,13.924 7.698,14.071 C7.698,14.071 8.758,15.142 8.758,15.142 C8.904,15.288 9.142,15.288 9.288,15.142 C9.288,15.142 16.462,7.968 16.462,7.968 C16.608,7.821 16.608,7.580 16.462,7.433 Z" id="path-1" class="cls-2" fill-rule="evenodd"/>
</svg>
