<?xml version="1.0" encoding="utf-8"?><svg width="137" height="91" viewBox="0 0 137 91" xmlns="http://www.w3.org/2000/svg" xmlns:xlink="http://www.w3.org/1999/xlink"><svg width="20" height="20" viewBox="0 0 20 20" id="icon-checkbox" y="70.778"><path fill="#fff" d="M5 0h10a5 5 0 0 1 5 5v10a5 5 0 0 1-5 5H5a5 5 0 0 1-5-5V5a5 5 0 0 1 5-5z" class="acls-2" fill-rule="evenodd"/></svg><svg width="20" height="20" viewBox="0 0 20 20" id="icon-checkbox--hover" x="20" y="70.778"><path fill="#fff" d="M15 20H5a5 5 0 0 1-5-5V5a5 5 0 0 1 5-5h10a5 5 0 0 1 5 5v10a5 5 0 0 1-5 5zm1.462-12.567l-1.06-1.07a.372.372 0 0 0-.53 0L9.288 11.93a.37.37 0 0 1-.53 0L6.312 9.43a.376.376 0 0 0-.53 0l-1.08.975a.37.37 0 0 0-.112.263c0 .097.038.2.11.273l2.467 2.592.53.536 1.06 1.073a.375.375 0 0 0 .53 0l7.175-7.174a.38.38 0 0 0 0-.536z" class="bcls-2" fill-rule="evenodd"/></svg><svg width="137" height="70.778" viewBox="0 0 137 70.778" id="logo-triangle"><path fill="#81B3D2" d="M137 0H0l31.28 35.16 27.8 31.25c5.18 5.824 13.66 5.824 18.84 0l27.8-31.25L137 0z"/></svg></svg>